{
	"asset":{
		"generator":"Khronos glTF Blender I/O v3.5.30",
		"version":"2.0"
	},
	"scene":0,
	"scenes":[
		{
			"name":"Scene",
			"nodes":[
				0,
				1
			]
		}
	],
	"nodes":[
		{
			"name":"Node_0",
			"scale":[
				0.009999999776482582,
				0.009999999776482582,
				0.009999999776482582
			]
		},
		{
			"mesh":0,
			"name":"Curve",
			"rotation":[
				0.5003616213798523,
				0.4993327260017395,
				-0.4990484118461609,
				0.5012543797492981
			],
			"scale":[
				1.3443629741668701,
				1.3443628549575806,
				1.3443629741668701
			],
			"translation":[
				0,
				0,
				0.03584561496973038
			]
		}
	],
	"materials":[
		{
			"doubleSided":true,
			"name":"obs",
			"pbrMetallicRoughness":{
				"baseColorFactor":[
					1.0000001192092896,
					0.6795427799224854,
					0,
					1
				],
				"metallicFactor":1,
				"roughnessFactor":0.14122185111045837
			}
		}
	],
	"meshes":[
		{
			"name":"Curve",
			"primitives":[
				{
					"attributes":{
						"POSITION":0,
						"TEXCOORD_0":1,
						"NORMAL":2,
						"TANGENT":3
					},
					"indices":4,
					"material":0
				}
			]
		}
	],
	"accessors":[
		{
			"bufferView":0,
			"componentType":5126,
			"count":1186,
			"max":[
				0.4066944122314453,
				0.04999999701976776,
				0.7421992421150208
			],
			"min":[
				-0.34249210357666016,
				-0.04999999701976776,
				-1.1280869245529175
			],
			"type":"VEC3"
		},
		{
			"bufferView":1,
			"componentType":5126,
			"count":1186,
			"type":"VEC2"
		},
		{
			"bufferView":2,
			"componentType":5126,
			"count":1186,
			"type":"VEC3"
		},
		{
			"bufferView":3,
			"componentType":5126,
			"count":1186,
			"type":"VEC4"
		},
		{
			"bufferView":4,
			"componentType":5123,
			"count":3540,
			"type":"SCALAR"
		}
	],
	"bufferViews":[
		{
			"buffer":0,
			"byteLength":14232,
			"byteOffset":0,
			"target":34962
		},
		{
			"buffer":0,
			"byteLength":9488,
			"byteOffset":14232,
			"target":34962
		},
		{
			"buffer":0,
			"byteLength":14232,
			"byteOffset":23720,
			"target":34962
		},
		{
			"buffer":0,
			"byteLength":18976,
			"byteOffset":37952,
			"target":34962
		},
		{
			"buffer":0,
			"byteLength":7080,
			"byteOffset":56928,
			"target":34963
		}
	],
	"buffers":[
		{
			"byteLength":64008,
			"uri":"data:application/octet-stream;base64,"
		}
	]
}
