<svg width="50" height="49" viewBox="0 0 50 49" fill="none" xmlns="http://www.w3.org/2000/svg">
<path d="M29.2746 8.02917C27.0035 8.02917 25.7036 9.80847 25.3376 10.6981C24.8061 9.80847 23.1898 8.02917 20.9772 8.02917C18.7646 8.02917 17.1124 9.80847 16.5629 10.6981C15.6894 11.613 13.5083 12.8939 11.772 10.6981C11.5726 10.4325 11.1098 9.75086 10.8538 9.14984C10.5338 8.39857 9.2677 8.27335 9.62942 9.85938C9.99115 11.4454 10.5045 12.6269 10.8538 13.379C11.2031 14.1312 13.4373 17.4917 16.5629 17.9948C19.6884 18.498 23.9378 17.5271 25.3376 16.3633C26.859 17.6088 31.3443 18.5612 33.9636 17.9568C36.5829 17.3523 37.2789 16.3449 38.5977 14.8796C39.9165 13.4143 40.7957 10.3921 40.9056 9.47625C41.0154 8.56042 39.7516 8.24904 39.5135 9.12823C39.323 9.83159 38.8236 10.4679 38.5977 10.6981C36.81 12.8333 34.7634 11.5878 33.9636 10.6981C33.347 9.80847 31.5458 8.02917 29.2746 8.02917Z" fill="#FFEB0C"/>
<path d="M38.5977 18.8625C42.9361 15.6089 45.6017 5.03488 46.3922 0.154541C48.484 0.715702 51.9458 7.02327 48.3234 19.0396C44.7009 31.0559 43.268 29.8774 42.5559 28.0867C40.0841 34.3337 34.781 45.6268 33.3429 40.8229C31.5416 43.3958 27.4188 48.5418 25.3376 48.5418C22.9181 48.5418 18.9648 43.3958 17.2906 40.8229C15.3763 45.3925 10.5752 34.2361 8.41387 28.0867C7.89926 29.8363 5.91291 30.441 2.08435 18.8625C-1.74422 7.28405 1.89623 1.56617 4.19503 0.154541C5.12163 9.24809 9.62942 16.3633 12.3881 18.8625C14.5951 20.8619 19.9308 21.7861 22.3228 21.9983C22.345 21.0121 22.979 19.0396 25.3376 19.0396C27.6963 19.0396 28.3367 21.0121 28.362 21.9983C30.0924 21.7258 34.2592 22.1161 38.5977 18.8625Z" fill="#FFEB0C"/>
</svg>
