<?xml version="1.0" encoding="UTF-8" standalone="no"?>
<!-- Created with Inkscape (http://www.inkscape.org/) -->

<svg
   width="56.241543mm"
   height="74.144318mm"
   viewBox="0 0 56.241543 74.144318"
   version="1.1"
   id="svg1"
   xml:space="preserve"
   xmlns:inkscape="http://www.inkscape.org/namespaces/inkscape"
   xmlns:sodipodi="http://sodipodi.sourceforge.net/DTD/sodipodi-0.dtd"
   xmlns="http://www.w3.org/2000/svg"
   xmlns:svg="http://www.w3.org/2000/svg"><sodipodi:namedview
     id="namedview1"
     pagecolor="#ffffff"
     bordercolor="#000000"
     borderopacity="0.25"
     inkscape:showpageshadow="2"
     inkscape:pageopacity="0.0"
     inkscape:pagecheckerboard="0"
     inkscape:deskcolor="#d1d1d1"
     inkscape:document-units="mm"
     showguides="true"><sodipodi:guide
       position="-35.968299,329.64447"
       orientation="0,-1"
       id="guide3"
       inkscape:locked="false" /><sodipodi:guide
       position="-36.744729,327.01657"
       orientation="0,-1"
       id="guide4"
       inkscape:locked="false" /></sodipodi:namedview><defs
     id="defs1" /><g
     inkscape:groupmode="layer"
     id="layer2"
     inkscape:label="Trazo"
     transform="translate(216.46497,-161.61442)"><path
       id="path2"
       style="opacity:1;fill:#ffd700;stroke-width:0.264999"
       d="m -165.70668,161.61442 -14.07201,14.0715 c 0,0 -0.79338,0.55819 -1.57045,-0.0331 -0.77706,-0.59124 -2.28048,-1.90892 -2.28048,-1.90892 0,0 -1.75673,-0.81105 -3.41219,0.0336 -1.65549,0.84463 -9.90276,9.59063 -9.90276,9.59063 0,0 -0.83614,1.29016 0,2.89078 l 1.55288,1.55287 1.73168,-0.50178 -0.47749,1.7198 3.12952,3.12952 2.37712,-0.37 -0.0667,2.6479 3.71657,3.71657 c 0,0 1.52034,1.08113 2.93936,0 1.41898,-1.08114 9.62887,-9.62887 9.62887,-9.62887 0,0 0.77706,-1.689 0,-3.61477 l -2.04432,-2.33164 c 0,0 -0.52343,-0.74316 0.13539,-1.40198 0.65882,-0.65881 14.08855,-14.08855 14.08855,-14.08855 0,0 0.48863,-4.60327 -5.47357,-5.47357 z m 0.90795,2.80035 c 1.65127,0.14781 1.88154,1.88154 1.88154,1.88154 0,0 -11.75289,11.7534 -13.52372,13.52424 -1.77085,1.77084 0,4.53306 0,4.53306 0,0 0.50753,0.47171 1.4273,1.4273 0.91974,0.9556 0,1.83968 0,1.83968 l -0.93379,0.93379 c -0.43904,-0.44129 -6.2279,-6.26043 -6.63474,-6.63473 -0.42233,-0.38853 -1.14042,-0.34581 -1.757,0.27078 -0.6166,0.61658 -0.0873,1.60714 -0.0873,1.60714 l 6.6182,6.6182 -5.54281,5.54229 -3.27319,-3.15329 0.0119,-3.27319 -2.9621,0.41807 -2.22208,-2.16215 0.21549,-2.65151 -2.24586,0.62115 -0.34365,-0.3235 c -0.72636,-0.76018 0.0672,-1.21646 0.0672,-1.21646 0,0 2.71002,-2.73297 4.99918,-5.02553 l 1.34514,1.34565 c 0,0 0.79455,0.59088 1.72031,-0.33486 0.92571,-0.92574 0.0594,-1.66037 0.0594,-1.66037 l -1.23403,-1.23403 c 0.44285,-0.43816 0.94761,-0.93954 1.08366,-1.06402 0.79395,-0.72638 1.52032,0 1.52032,0 l 1.55391,1.3808 c 2.66901,1.5668 5.04672,0 5.04672,0 z m -49.829,36.77967 c -1.97644,0 -1.83503,1.73943 -1.83503,1.73943 0.66892,9.84263 5.26421,17.41699 12.32535,22.6875 0.0217,0.0162 0.0453,0.0309 0.0672,0.047 -0.2735,0.75461 -1.09619,3.54443 0.91415,5.43171 2.34122,2.19785 6.71297,4.65863 14.78773,4.65863 8.07479,0 12.61392,-2.77123 14.33401,-4.68241 1.46378,-1.62643 1.40326,-4.14781 0.88212,-5.42395 0.0321,-0.0222 0.0651,-0.0428 0.0971,-0.0651 10.03426,-6.99357 11.5392,-16.8248 12.08867,-20.67109 0.54947,-3.84625 -0.90796,-3.67832 -0.90796,-3.67832 h -44.22004 c -2.20981,1.4095 0,2.69906 0,2.69906 h 42.61962 c -0.0733,0.89 -0.19133,1.76534 -0.34003,2.62878 l -49.61971,0.009 c -0.29046,-1.64766 -0.32866,-2.7094 -0.32866,-2.7094 h 3.12953 c 0,0 0.8878,0.0487 0.8878,-1.3534 0,-1.40213 -1.25006,-1.31775 -1.25006,-1.31775 z m 1.79163,8.01553 h 48.43322 c -1.6049,5.88582 -5.06942,10.91969 -10.30015,14.22135 -6.73697,4.25242 -17.67846,6.92809 -28.19001,0 -6.09492,-4.01709 -8.76575,-9.94172 -9.94306,-14.22135 z m 37.28041,17.8971 5.1e-4,0.001 c 0,0 2.23758,4.92363 -12.52636,5.87923 0,0 -14.314,0.0234 -13.69116,-5.87458 6.83378,3.66915 17.55045,4.59398 26.21701,-0.006 z" /></g></svg>
