<svg xmlns="http://www.w3.org/2000/svg" viewBox="0 0 260.61 650.72"><defs><style>.cls-1{fill:#8647ad;}</style></defs><g id="Capa_2" data-name="Capa 2"><g id="Capa_4" data-name="Capa 4"><path class="cls-1" d="M181,9.75A135.59,135.59,0,0,0,130.35,0C58.39,0,0,55.43,0,123.74V527c0,68.3,58.39,123.73,130.35,123.73S260.61,595.29,260.61,527V123.74C260.61,72.46,227.81,28.56,181,9.75Zm35.43,503.76c0,51.78-38.65,93.82-86.28,93.82-22.8,0-43.48-9.66-58.82-25.34l22.71-22.71,36.62,36.86,45.25-45.26V520.8l-30.08-30.17-7.63,7.71-22.46-22.46V445.79l37.46,37.55,7.71,7.71,55.52-55.51Zm0-108.74L168.15,453l-37.29-37.29L85.68,460.62v30.09l30.09,30.09,7.37-7.38,22.72,22.72v30l-37.72-37.71-7.71-7.63-43,43A97.81,97.81,0,0,1,43.9,513.51V427L85.26,385.7l30,30.09,30-30,29.92-30V340.53l-14.92-15,15.18-15.17V295.53l41-41Zm0-180.69L160.1,280.44l-14.84-14.57v30l-30,30V326l29.92,29.83V385.7l-29.92-29.91V326l-.08-.09.08-.08v-30l30-30-30.08-30.09L85.26,265.7v90L43.9,397V247l41.44-41.45,30,30,29.91-30-29.91-30V85.6l-30,30v61.11L43.9,218.15V138c0-51.79,38.65-93.82,86.28-93.82a80.18,80.18,0,0,1,33.56,7.37,86.69,86.69,0,0,1,26.53,19.15l-14.92,15-30.09-30L115.35,85.6l29.91,30v89.92l30.09-30.08V115.35L202.9,87.72A98.24,98.24,0,0,1,216.46,138Z"/></g></g></svg>