<svg width="66" height="49" viewBox="0 0 66 49" fill="none" xmlns="http://www.w3.org/2000/svg">
<path fill-rule="evenodd" clip-rule="evenodd" d="M47.7644 36.5388C52.6143 37.4243 55.1037 37.5239 60.2484 36.5388C61.8544 34.636 65.1273 29.552 65.3709 24.4383C65.4176 23.4561 65.4707 22.5241 65.5209 21.642L65.5211 21.6386L65.5213 21.6365C65.7978 16.7815 65.9882 13.439 64.5718 11.5398C63.2325 9.74397 59.9299 9.01599 58.446 8.87648L57.9894 1.83746C56.8479 0.556478 53.7508 -1.2369 50.4938 1.83746L49.6948 8.87648C47.488 9.10478 44.7104 10.132 43.6451 11.5398C42.5797 12.9476 42.6177 19.8725 42.6938 24.4383C42.7547 28.091 46.0996 34.0273 47.7644 36.5388ZM5.35676 41.3634L25.5147 17.7323L20.952 13.9867C20.2823 13.5327 18.6502 12.9788 17.4788 14.3953C16.3075 15.8118 5.79951 28.0156 0.691926 33.9404C0.169832 34.6214 -0.5611 36.2694 0.691926 37.4135C1.94495 38.5576 4.32391 40.5235 5.35676 41.3634ZM19.2517 26.4284L23.6224 21.5999C25.0399 21.7427 28.1998 21.783 29.4992 20.8026C31.1234 19.577 32.1718 18.3367 31.8322 17.3031C31.4926 16.2695 36.4932 19.8208 36.4932 26.4284H19.2517ZM18.6227 29.8794V27.467C24.1669 27.4472 35.6598 27.4076 37.2779 27.4076C38.896 27.4076 39.3353 28.4958 39.3527 29.0399V32.089C41.8641 32.089 42.4313 34.1405 42.4009 35.1662V43.8722C42.4009 47.4901 39.2786 48.4927 37.7175 48.5417H12.8007C8.60103 48.5417 8.28003 45.4303 8.35529 43.8746V39.0859H10.8304V43.8746C10.8304 45.7668 11.9511 46.0931 12.8007 46.0197H37.7175C39.391 45.99 39.9891 44.8349 39.9891 43.8722V35.1662C39.9891 34.6543 39.5648 34.5287 39.3527 34.5299H14.7386V32.089H36.8861V29.8794H18.6227ZM51.896 10.6359C52.6426 11.2682 54.6797 12.1534 56.8555 10.6359L56.4441 3.96221C55.6442 4.14507 53.7061 4.40107 52.3531 3.96221L51.896 10.6359ZM49.7023 11.4197C47.4724 11.2868 46.0781 12.1274 45.6597 12.5642C51.0175 14.9875 57.4357 15.2646 62.9378 12.5642C62.3902 12.0412 60.8112 11.0801 58.8767 11.4197C56.1428 13.6946 53.8077 15.0379 49.7023 11.4197ZM44.9042 17.6483C52.2961 19.7842 56.3762 19.7842 63.3695 17.8403V14.6C57.2162 17.264 51.288 17.216 45.1438 14.4799L44.9042 17.6483ZM45.718 26.8574C51.7269 28.9543 57.5481 28.9543 62.6496 26.8574C62.9734 26.3718 63.0894 24.4869 63.3452 20.3346L63.3695 19.9408C58.7062 21.4743 49.9867 21.4432 44.9042 19.9408C44.5537 24.5477 45.3007 26.4714 45.718 26.8574ZM59.2916 34.5449C56.2966 35.4966 51.762 35.3847 48.879 34.5449C48.3887 33.8498 47.1953 31.7586 46.344 28.9543C49.9995 30.6319 57.6421 30.6756 62.0237 28.9543C61.5229 30.8822 59.9936 33.4847 59.2916 34.5449Z" fill="#FFEB0C"/>
</svg>
