<svg width="60" height="59" viewBox="0 0 60 59" fill="none" xmlns="http://www.w3.org/2000/svg">
<path fill-rule="evenodd" clip-rule="evenodd" d="M37.3071 20.5189C36.6795 21.1698 31.1762 23.2114 28.503 24.1509C30.2658 20.6738 34.4189 12.691 36.9293 8.5766C39.4398 4.46224 45.0457 1.28355 47.5348 0.208496C44.3871 6.70744 37.9347 19.868 37.3071 20.5189ZM31.7552 34.5892L24.63 36.868L21.9995 46.8912C21.5965 48.9298 21.1532 53.4979 22.6039 55.4607C24.4174 57.9142 26.5509 58.6253 30.64 58.4475C34.7292 58.2697 37.4316 51.5493 37.2538 45.9311C37.1116 41.4366 32.6623 39.4606 30.4554 39.0344L31.7552 34.5892ZM59.1541 11.96C57.9797 14.4254 54.2453 20.251 48.7034 23.8301C43.1615 27.4093 37.3262 30.1562 35.1012 31.0822C32.0705 32.1363 24.8978 34.5067 20.4527 35.5562L20.0999 35.6395L20.0998 35.6395C14.6879 36.9174 9.91293 38.0449 8.04127 38.0096C6.12903 37.9735 1.61895 37.288 1.04167 31.5152C0.579847 26.897 2.72535 24.9727 3.85583 24.5878C6.70618 23.4212 13.1213 21.4128 15.9788 22.7117C19.5507 24.3353 20.2362 28.1237 20.128 29.1339L30.6995 26.0671L59.1541 11.96ZM15.0386 30.1091C15.159 28.8301 14.6594 26.3444 11.698 26.6333C11.4987 26.6527 11.3046 26.671 11.1156 26.6889L11.1152 26.6889C7.79467 27.0024 6.0704 27.1652 5.94227 30.5606C5.83393 33.4317 8.87645 33.7732 10.4113 33.5852C11.9537 33.5851 15.0386 32.8898 15.0386 30.1091ZM29.1167 44.2718C29.9226 44.1079 31.7393 44.2185 32.5589 45.9725C33.5834 48.1648 31.7803 52.2218 30.4485 53.2668C29.1167 54.3118 26.8013 53.0209 26.1661 51.6891C25.531 50.3572 26.1252 48.1444 26.6784 46.7511C27.2316 45.3578 27.5799 44.4972 29.1167 44.2718Z" fill="#FFEB0C"/>
</svg>
